<?xml version="1.0" standalone="no"?><!DOCTYPE svg PUBLIC "-//W3C//DTD SVG 1.1//EN" "http://www.w3.org/Graphics/SVG/1.1/DTD/svg11.dtd"><svg t="1701237736827" class="icon" viewBox="0 0 1024 1024" version="1.1" xmlns="http://www.w3.org/2000/svg" p-id="3684" xmlns:xlink="http://www.w3.org/1999/xlink" width="128" height="128"><path d="M559.0016 946.1248h-348.672c-69.8368 0-126.464-56.6272-126.464-126.464V199.6288c0-69.8368 56.6272-126.464 126.464-126.464h348.672c69.8368 0 126.464 56.6272 126.464 126.464v620.032c0 69.8368-56.6272 126.464-126.464 126.464z" fill="#FFD05C" p-id="3685"></path><path d="M424.4992 268.7488H344.7808c-22.6304 0-40.96-18.3296-40.96-40.96s18.3296-40.96 40.96-40.96h79.7184c22.6304 0 40.96 18.3296 40.96 40.96s-18.3296 40.96-40.96 40.96z" fill="#FFFFFF" p-id="3686"></path><path d="M384.6656 790.0672m-46.7456 0a46.7456 46.7456 0 1 0 93.4912 0 46.7456 46.7456 0 1 0-93.4912 0Z" fill="#FFFFFF" p-id="3687"></path><path d="M679.2192 525.8752m-280.4224 0a280.4224 280.4224 0 1 0 560.8448 0 280.4224 280.4224 0 1 0-560.8448 0Z" fill="#FFD05C" p-id="3688"></path><path d="M685.4656 806.144V245.6064c-2.0992-0.0512-4.1472-0.1536-6.2464-0.1536-154.88 0-280.4224 125.5424-280.4224 280.4224s125.5424 280.4224 280.4224 280.4224c2.0992 0 4.1472-0.1024 6.2464-0.1536z" fill="#FCA235" p-id="3689"></path><path d="M783.6672 552.9088h-57.7536v-22.1696h57.7536c22.6304 0 40.96-18.3296 40.96-40.96s-18.3296-40.96-40.96-40.96h-11.4176l34.816-37.6832a40.96 40.96 0 0 0-2.304-57.9072 40.96 40.96 0 0 0-57.9072 2.304l-62.0544 67.1744-59.648-65.1776c-15.3088-16.6912-41.216-17.8176-57.856-2.56-16.6912 15.2576-17.8176 41.1648-2.56 57.856l32.9216 35.9424h-11.4688c-22.6304 0-40.96 18.3296-40.96 40.96s18.3296 40.96 40.96 40.96h57.7536v22.1696h-57.7536c-22.6304 0-40.96 18.3296-40.96 40.96s18.3296 40.96 40.96 40.96h57.7536v26.112c0 22.6304 18.3296 40.96 40.96 40.96s40.96-18.3296 40.96-40.96v-26.112h57.7536c22.6304 0 40.96-18.3296 40.96-40.96s-18.3296-40.9088-40.9088-40.9088z" fill="#FFFFFF" p-id="3690"></path></svg>