<?xml version="1.0" standalone="no"?><!DOCTYPE svg PUBLIC "-//W3C//DTD SVG 1.1//EN" "http://www.w3.org/Graphics/SVG/1.1/DTD/svg11.dtd"><svg t="1701240533049" class="icon" viewBox="0 0 1024 1024" version="1.1" xmlns="http://www.w3.org/2000/svg" p-id="4285" data-spm-anchor-id="a313x.collections_detail.0.i9.77193a81n4ge6H" xmlns:xlink="http://www.w3.org/1999/xlink" width="128" height="128"><path d="M704.2048 935.8848H246.7328c-73.5232 0-133.12-59.5968-133.12-133.12V217.4976c0-73.5232 59.5968-133.12 133.12-133.12h457.472c73.5232 0 133.12 59.5968 133.12 133.12v585.2672c0 73.5232-59.5968 133.12-133.12 133.12z" fill="#bfbfbf" p-id="4286" data-spm-anchor-id="a313x.collections_detail.0.i6.77193a81n4ge6H" class=""></path><path d="M639.4368 326.0416H314.368c-22.6304 0-40.96-18.3296-40.96-40.96s18.3296-40.96 40.96-40.96h325.12c22.6304 0 40.96 18.3296 40.96 40.96s-18.3808 40.96-41.0112 40.96zM639.4368 488.448H314.368c-22.6304 0-40.96-18.3296-40.96-40.96s18.3296-40.96 40.96-40.96h325.12c22.6304 0 40.96 18.3296 40.96 40.96s-18.3808 40.96-41.0112 40.96zM470.016 650.8544H314.368c-22.6304 0-40.96-18.3296-40.96-40.96s18.3296-40.96 40.96-40.96h155.648c22.6304 0 40.96 18.3296 40.96 40.96s-18.3296 40.96-40.96 40.96z" fill="#FFFFFF" p-id="4287"></path><path d="M750.2336 743.1168m-189.952 0a189.952 189.952 0 1 0 379.904 0 189.952 189.952 0 1 0-379.904 0Z" fill="#dbdbdb" p-id="4288" data-spm-anchor-id="a313x.collections_detail.0.i7.77193a81n4ge6H" class=""></path><path d="M750.2336 552.8064c-104.9088 0-189.952 85.0432-189.952 189.952 0 99.9936 77.2608 181.8624 175.36 189.3376 58.368-14.08 101.7856-66.6624 101.7856-129.3824V573.952a190.21312 190.21312 0 0 0-87.1936-21.1456z" fill="#cdcdcd" p-id="4289" data-spm-anchor-id="a313x.collections_detail.0.i5.77193a81n4ge6H" class=""></path><path d="M645.7856 743.1168m-35.9936 0a35.9936 35.9936 0 1 0 71.9872 0 35.9936 35.9936 0 1 0-71.9872 0Z" fill="#FFFFFF" p-id="4290"></path><path d="M750.6432 743.1168m-35.9936 0a35.9936 35.9936 0 1 0 71.9872 0 35.9936 35.9936 0 1 0-71.9872 0Z" fill="#cdcdcd" p-id="4291" data-spm-anchor-id="a313x.collections_detail.0.i4.77193a81n4ge6H" class=""></path><path d="M855.5008 743.1168m-35.9936 0a35.9936 35.9936 0 1 0 71.9872 0 35.9936 35.9936 0 1 0-71.9872 0Z" fill="#FFFFFF" p-id="4292"></path></svg>